<?xml version="1.0" standalone="no"?>
<!DOCTYPE svg PUBLIC "-//W3C//DTD SVG 20010904//EN"
 "http://www.w3.org/TR/2001/REC-SVG-20010904/DTD/svg10.dtd">
<svg version="1.0" xmlns="http://www.w3.org/2000/svg"
 width="1080.000000pt" height="1080.000000pt" viewBox="0 0 1080.000000 1080.000000"
 preserveAspectRatio="xMidYMid meet">

<g transform="translate(0.000000,1080.000000) scale(0.100000,-0.100000)"
fill="#000000" stroke="none">
<path d="M3287 9915 c-312 -60 -558 -244 -696 -521 -27 -55 -315 -952 -956
-2979 -1059 -3349 -1343 -4225 -1401 -4311 -146 -221 -163 -509 -42 -749 120
-239 368 -398 710 -456 116 -20 154 -20 3575 -16 l3458 3 98 27 c174 47 329
138 448 265 79 83 114 133 162 227 31 62 393 1175 1823 5600 106 330 200 629
208 665 51 223 14 466 -101 669 -55 96 -185 240 -277 305 -117 83 -247 138
-379 160 l-72 12 -6 135 c-7 157 -32 264 -88 385 -121 257 -332 438 -608 520
-82 24 -108 27 -368 34 -154 5 -1175 14 -2270 19 -1094 6 -2249 13 -2565 16
-480 4 -588 2 -653 -10z m6568 -1540 c90 -23 159 -61 225 -122 123 -113 182
-242 181 -393 0 -73 -7 -105 -46 -230 -65 -203 -1671 -5173 -1837 -5685 -55
-170 -112 -332 -125 -359 -31 -60 -119 -155 -183 -196 -25 -16 -73 -39 -106
-51 l-59 -21 -3430 2 c-2206 0 -3453 4 -3495 11 -160 24 -307 98 -376 187
-124 162 -53 398 142 472 71 27 92 28 584 11 351 -11 3731 -41 5090 -44 l655
-2 96 26 c292 81 528 291 634 563 19 50 253 766 519 1591 767 2377 1366 4229
1371 4243 6 17 87 15 160 -3z"/>
</g>
</svg>
