<?xml version="1.0" standalone="no"?>
<!DOCTYPE svg PUBLIC "-//W3C//DTD SVG 20010904//EN"
 "http://www.w3.org/TR/2001/REC-SVG-20010904/DTD/svg10.dtd">
<svg version="1.0" xmlns="http://www.w3.org/2000/svg"
 width="1080.000000pt" height="1080.000000pt" viewBox="0 0 1080.000000 1080.000000"
 preserveAspectRatio="xMidYMid meet">

<g transform="translate(0.000000,1080.000000) scale(0.100000,-0.100000)"
fill="#000000" stroke="none">
<path d="M5145 10324 c-697 -35 -1231 -133 -1835 -334 -266 -89 -474 -175
-745 -310 -538 -268 -942 -556 -1345 -959 -540 -540 -892 -1161 -1045 -1839
-55 -245 -69 -378 -69 -667 -1 -287 9 -408 50 -635 154 -847 627 -1626 1369
-2250 157 -132 390 -302 555 -404 82 -51 109 -73 105 -85 -2 -9 -169 -542
-370 -1184 -202 -643 -364 -1171 -362 -1173 3 -3 771 344 1708 771 l1703 776
186 -12 c199 -13 615 -7 855 11 558 42 1109 156 1630 337 1283 445 2285 1266
2801 2295 244 487 383 1093 359 1573 -19 390 -71 680 -179 1002 -360 1068
-1267 1995 -2491 2543 -646 289 -1339 465 -2073 525 -174 15 -669 26 -807 19z
m675 -694 c754 -53 1481 -246 2112 -561 721 -360 1274 -841 1647 -1434 89
-141 221 -416 275 -573 289 -837 177 -1673 -325 -2437 -354 -539 -928 -1027
-1594 -1355 -658 -323 -1357 -507 -2139 -561 -195 -13 -797 -7 -951 11 l-100
11 -1088 -496 c-599 -273 -1090 -495 -1093 -493 -2 3 97 328 221 723 124 395
222 722 218 726 -4 4 -96 55 -203 112 -107 57 -237 130 -289 161 -689 419
-1224 1000 -1492 1622 -112 259 -193 562 -219 819 -20 194 -16 481 8 640 158
1033 883 1929 2032 2512 622 316 1374 519 2120 572 168 12 692 12 860 1z"/>
<path d="M3262 6594 c-244 -65 -423 -283 -439 -536 -12 -177 47 -330 176 -459
121 -121 252 -174 426 -172 371 4 648 351 570 717 -45 212 -220 396 -431 451
-73 19 -231 19 -302 -1z"/>
<path d="M5250 6594 c-208 -55 -370 -218 -425 -429 -19 -73 -19 -223 -1 -292
57 -213 230 -383 444 -433 74 -17 205 -15 282 5 206 53 372 221 425 430 19 75
19 223 0 295 -27 103 -73 180 -159 266 -87 87 -162 131 -271 159 -74 19 -222
18 -295 -1z"/>
<path d="M7231 6594 c-207 -56 -382 -240 -426 -450 -78 -366 199 -713 570
-717 174 -2 305 51 426 172 129 129 188 282 176 459 -16 255 -196 473 -443
537 -73 19 -231 19 -303 -1z"/>
</g>
</svg>
