<?xml version="1.0" standalone="no"?>
<!DOCTYPE svg PUBLIC "-//W3C//DTD SVG 20010904//EN"
 "http://www.w3.org/TR/2001/REC-SVG-20010904/DTD/svg10.dtd">
<svg version="1.0" xmlns="http://www.w3.org/2000/svg"
 width="1080.000000pt" height="1080.000000pt" viewBox="0 0 1080.000000 1080.000000"
 preserveAspectRatio="xMidYMid meet">

<g transform="translate(0.000000,1080.000000) scale(0.100000,-0.100000)"
fill="#000000" stroke="none">
<path d="M5110 10690 c-1046 -61 -2039 -421 -2865 -1037 -373 -278 -749 -646
-1030 -1008 -566 -728 -928 -1585 -1059 -2505 -37 -259 -50 -445 -50 -740 0
-500 55 -913 184 -1395 119 -441 316 -907 552 -1302 245 -411 499 -733 850
-1079 681 -671 1484 -1124 2408 -1358 502 -127 1035 -182 1532 -157 595 31
1085 130 1619 330 494 184 916 415 1333 729 370 280 767 676 1048 1048 539
715 885 1548 1012 2444 37 259 50 445 50 740 0 146 -6 333 -13 415 -54 676
-236 1333 -537 1942 -138 277 -321 573 -512 827 -281 372 -676 767 -1048 1048
-715 539 -1549 885 -2444 1012 -316 45 -726 63 -1030 46z m506 -2641 c669 -65
1278 -430 1649 -990 181 -273 303 -593 351 -924 24 -164 24 -469 0 -625 -84
-558 -360 -1056 -776 -1401 -418 -347 -898 -520 -1440 -520 -299 0 -550 46
-808 147 -760 297 -1285 958 -1408 1774 -24 156 -24 461 0 625 109 752 577
1386 1263 1712 353 168 774 241 1169 202z m244 -4849 c703 -48 1281 -198 1678
-438 251 -152 643 -460 991 -778 185 -168 244 -230 238 -247 -12 -37 -395
-340 -614 -486 -1055 -700 -2361 -974 -3601 -755 -346 61 -621 137 -967 267
-256 96 -602 274 -875 447 -265 169 -680 496 -680 536 0 13 214 218 375 361
387 342 787 632 1037 753 433 208 1010 324 1758 354 124 5 492 -3 660 -14z"/>
</g>
</svg>
