<?xml version="1.0" standalone="no"?>
<!DOCTYPE svg PUBLIC "-//W3C//DTD SVG 20010904//EN"
 "http://www.w3.org/TR/2001/REC-SVG-20010904/DTD/svg10.dtd">
<svg version="1.0" xmlns="http://www.w3.org/2000/svg"
 width="1080.000000pt" height="1080.000000pt" viewBox="0 0 1080.000000 1080.000000"
 preserveAspectRatio="xMidYMid meet">

<g transform="translate(0.000000,1080.000000) scale(0.100000,-0.100000)"
fill="#000000" stroke="none">
<path d="M3770 10211 c-19 -10 -44 -34 -55 -52 -19 -33 -20 -55 -23 -651 l-3
-618 -1539 0 c-1072 0 -1555 -3 -1592 -11 -29 -6 -91 -29 -137 -51 -147 -70
-249 -197 -291 -364 -20 -76 -20 -124 -20 -3538 0 -3804 -4 -3528 62 -3664 44
-92 160 -208 251 -251 137 -66 -265 -61 4982 -61 4057 0 4790 2 4846 14 166
35 314 152 388 304 22 47 44 111 50 150 9 49 11 1019 9 3542 l-3 3475 -22 66
c-64 186 -234 340 -421 378 -37 8 -520 11 -1592 11 l-1539 0 -3 618 c-3 596
-4 618 -23 651 -11 18 -36 42 -55 52 -33 18 -93 19 -1635 19 -1542 0 -1602 -1
-1635 -19z m3070 -791 l0 -530 -1432 2 -1433 3 -3 528 -2 527 1435 0 1435 0 0
-530z m-5010 -4490 l0 -3690 -604 0 c-668 0 -650 -2 -732 65 -25 21 -54 59
-71 93 l-28 57 -3 3455 c-2 3864 -9 3520 71 3607 47 51 103 83 162 94 22 3
302 7 623 8 l582 1 0 -3690z m6878 -2 l2 -3688 -3300 0 -3300 0 0 3688 0 3687
3298 0 3297 0 3 -3687z m1548 3660 c57 -30 115 -90 141 -145 17 -36 18 -207
18 -3513 l0 -3475 -28 -57 c-31 -64 -88 -115 -155 -141 -38 -15 -108 -17 -647
-17 l-605 0 0 3683 c0 2026 3 3687 7 3691 4 4 280 6 613 4 l605 -3 51 -27z"/>
<path d="M3183 7424 c-18 -9 -40 -28 -49 -42 -25 -39 -384 -1122 -384 -1160 0
-45 23 -86 62 -110 18 -11 457 -160 974 -333 921 -306 942 -313 982 -301 22 7
50 23 63 36 26 27 399 1119 399 1170 0 40 -29 94 -60 112 -40 23 -1899 644
-1928 644 -15 0 -41 -8 -59 -16z m1734 -837 c9 -10 -261 -797 -274 -797 -11 0
-1565 520 -1572 526 -3 3 216 659 260 781 8 22 23 18 794 -241 432 -145 788
-266 792 -269z"/>
<path d="M7095 5726 c-16 -8 -510 -495 -1096 -1082 -1129 -1132 -1100 -1100
-1084 -1177 6 -25 134 -159 638 -664 684 -683 663 -665 754 -649 34 7 142 111
1087 1054 576 576 1061 1065 1077 1086 33 44 39 108 15 154 -21 40 -1258 1270
-1290 1282 -36 13 -64 12 -101 -4z m564 -820 l505 -505 -382 -388 c-209 -213
-636 -643 -949 -956 l-568 -567 -508 508 -508 508 946 952 c521 524 950 952
953 952 4 0 234 -227 511 -504z"/>
</g>
</svg>
